<svg width="32" height="32" viewBox="0 0 32 32" fill="none" xmlns="http://www.w3.org/2000/svg">
<path d="M27 27V14.4424C27 14.303 26.9709 14.1652 26.9145 14.0378C26.8582 13.9104 26.7758 13.7962 26.6727 13.7024L16.672 4.61054C16.4879 4.44318 16.2481 4.35046 15.9993 4.35046C15.7505 4.35047 15.5106 4.44322 15.3266 4.61058L5.32726 13.7024C5.22418 13.7962 5.14183 13.9104 5.08547 14.0378C5.02911 14.1652 5 14.303 5 14.4423V27" stroke="white" stroke-width="2" stroke-linecap="round" stroke-linejoin="round"/>
<path d="M2 27H30" stroke="white" stroke-width="2" stroke-linecap="round" stroke-linejoin="round"/>
<path d="M18.9993 26.999V19.999C18.9993 19.7337 18.8939 19.4794 18.7064 19.2919C18.5188 19.1043 18.2645 18.999 17.9993 18.999H13.9993C13.7341 18.999 13.4797 19.1043 13.2922 19.2919C13.1046 19.4794 12.9993 19.7337 12.9993 19.999V26.999" stroke="white" stroke-width="2" stroke-linecap="round" stroke-linejoin="round"/>
</svg>
