<svg width="20" height="20" viewBox="0 0 20 20" fill="none" xmlns="http://www.w3.org/2000/svg">
<path d="M16.5625 7.8125C17.4254 7.8125 18.125 7.11294 18.125 6.25C18.125 5.38706 17.4254 4.6875 16.5625 4.6875C15.6996 4.6875 15 5.38706 15 6.25C15 7.11294 15.6996 7.8125 16.5625 7.8125Z" stroke="black" stroke-linecap="round" stroke-linejoin="round"/>
<path d="M6.875 11.4864V3.75C6.875 3.08696 7.13839 2.45107 7.60723 1.98223C8.07607 1.51339 8.71196 1.25 9.375 1.25C10.038 1.25 10.6739 1.51339 11.1428 1.98223C11.6116 2.45107 11.875 3.08696 11.875 3.75V11.4864L11.8756 11.4856C12.5422 12.0062 13.0297 12.722 13.2701 13.533C13.5104 14.344 13.4916 15.2098 13.2163 16.0096C12.941 16.8094 12.4228 17.5033 11.7342 17.9945C11.0456 18.4857 10.2209 18.7498 9.375 18.7498C8.52914 18.7498 7.70437 18.4857 7.01576 17.9945C6.32715 17.5033 5.80905 16.8094 5.53373 16.0096C5.2584 15.2098 5.2396 14.344 5.47993 13.533C5.72027 12.722 6.20775 12.0062 6.87438 11.4856L6.875 11.4864Z" stroke="black" stroke-linecap="round" stroke-linejoin="round"/>
<path d="M9.375 16.25C10.2379 16.25 10.9375 15.5504 10.9375 14.6875C10.9375 13.8246 10.2379 13.125 9.375 13.125C8.51206 13.125 7.8125 13.8246 7.8125 14.6875C7.8125 15.5504 8.51206 16.25 9.375 16.25Z" stroke="black" stroke-linecap="round" stroke-linejoin="round"/>
<path d="M9.375 13.125V6.875" stroke="black" stroke-linecap="round" stroke-linejoin="round"/>
</svg>
